<svg width="174" height="175" viewBox="0 0 174 175" fill="none" xmlns="http://www.w3.org/2000/svg">
<rect width="174" height="175" rx="87" fill="#1E8E31"/>
<path d="M96.75 54.75C96.75 54.1977 96.3023 53.75 95.75 53.75H86.75C86.1977 53.75 85.75 54.1977 85.75 54.75C85.75 55.3023 86.1977 55.75 86.75 55.75H94.75V63.75C94.75 64.3023 95.1977 64.75 95.75 64.75C96.3023 64.75 96.75 64.3023 96.75 63.75V54.75ZM78.9571 72.9571L96.4571 55.4571L95.0429 54.0429L77.5429 71.5429L78.9571 72.9571Z" fill="white"/>
<path d="M58.5483 91.4318C58.5483 92.7008 58.3078 93.7803 57.8267 94.6705C57.3494 95.5606 56.6979 96.2405 55.8722 96.7102C55.0502 97.1761 54.1259 97.4091 53.0994 97.4091C52.0653 97.4091 51.1373 97.1742 50.3153 96.7045C49.4934 96.2348 48.8438 95.5549 48.3665 94.6648C47.8892 93.7746 47.6506 92.697 47.6506 91.4318C47.6506 90.1629 47.8892 89.0833 48.3665 88.1932C48.8438 87.303 49.4934 86.625 50.3153 86.1591C51.1373 85.6894 52.0653 85.4545 53.0994 85.4545C54.1259 85.4545 55.0502 85.6894 55.8722 86.1591C56.6979 86.625 57.3494 87.303 57.8267 88.1932C58.3078 89.0833 58.5483 90.1629 58.5483 91.4318ZM56.054 91.4318C56.054 90.6098 55.9309 89.9167 55.6847 89.3523C55.4422 88.7879 55.0994 88.3598 54.6562 88.0682C54.2131 87.7765 53.6941 87.6307 53.0994 87.6307C52.5047 87.6307 51.9858 87.7765 51.5426 88.0682C51.0994 88.3598 50.7547 88.7879 50.5085 89.3523C50.2661 89.9167 50.1449 90.6098 50.1449 91.4318C50.1449 92.2538 50.2661 92.947 50.5085 93.5114C50.7547 94.0758 51.0994 94.5038 51.5426 94.7955C51.9858 95.0871 52.5047 95.233 53.0994 95.233C53.6941 95.233 54.2131 95.0871 54.6562 94.7955C55.0994 94.5038 55.4422 94.0758 55.6847 93.5114C55.9309 92.947 56.054 92.2538 56.054 91.4318ZM59.8707 90.4261V88.5227H67.7798V90.4261H64.9673V97.25H62.6605V90.4261H59.8707ZM69.2472 97.25V88.5227H72.9688C74.0445 88.5227 74.8949 88.7273 75.5199 89.1364C76.1449 89.5455 76.4574 90.1269 76.4574 90.8807C76.4574 91.3542 76.2813 91.7481 75.929 92.0625C75.5767 92.3769 75.0881 92.589 74.4631 92.6989C74.9858 92.7367 75.4309 92.8561 75.7983 93.0568C76.1695 93.2538 76.4517 93.5095 76.6449 93.8239C76.8419 94.1383 76.9403 94.4867 76.9403 94.8693C76.9403 95.3655 76.8078 95.7917 76.5426 96.1477C76.2813 96.5038 75.8968 96.7765 75.3892 96.9659C74.8854 97.1553 74.2699 97.25 73.5426 97.25H69.2472ZM71.5028 95.4375H73.5426C73.8797 95.4375 74.143 95.358 74.3324 95.1989C74.5256 95.036 74.6222 94.8144 74.6222 94.5341C74.6222 94.2235 74.5256 93.9792 74.3324 93.8011C74.143 93.6231 73.8797 93.5341 73.5426 93.5341H71.5028V95.4375ZM71.5028 92.1136H73.0199C73.2623 92.1136 73.4688 92.0795 73.6392 92.0114C73.8134 91.9394 73.946 91.8371 74.0369 91.7045C74.1316 91.572 74.179 91.4148 74.179 91.233C74.179 90.964 74.071 90.7538 73.8551 90.6023C73.6392 90.4508 73.3438 90.375 72.9688 90.375H71.5028V92.1136ZM82.4432 97.4205C81.5455 97.4205 80.7727 97.2386 80.125 96.875C79.4811 96.5076 78.9848 95.9886 78.6364 95.3182C78.2879 94.6439 78.1136 93.8466 78.1136 92.9261C78.1136 92.0284 78.2879 91.2405 78.6364 90.5625C78.9848 89.8845 79.4754 89.3561 80.108 88.9773C80.7443 88.5985 81.4905 88.4091 82.3466 88.4091C82.9223 88.4091 83.4583 88.5019 83.9545 88.6875C84.4545 88.8693 84.8902 89.1439 85.2614 89.5114C85.6364 89.8788 85.928 90.3409 86.1364 90.8977C86.3447 91.4508 86.4489 92.0985 86.4489 92.8409V93.5057H79.0795V92.0057H84.1705C84.1705 91.6572 84.0947 91.3485 83.9432 91.0795C83.7917 90.8106 83.5814 90.6004 83.3125 90.4489C83.0473 90.2936 82.7386 90.2159 82.3864 90.2159C82.0189 90.2159 81.6932 90.3011 81.4091 90.4716C81.1288 90.6383 80.9091 90.8636 80.75 91.1477C80.5909 91.428 80.5095 91.7405 80.5057 92.0852V93.5114C80.5057 93.9432 80.5852 94.3163 80.7443 94.6307C80.9072 94.9451 81.1364 95.1875 81.4318 95.358C81.7273 95.5284 82.0777 95.6136 82.483 95.6136C82.7519 95.6136 82.9981 95.5758 83.2216 95.5C83.4451 95.4242 83.6364 95.3106 83.7955 95.1591C83.9545 95.0076 84.0758 94.822 84.1591 94.6023L86.3977 94.75C86.2841 95.2879 86.0511 95.7576 85.6989 96.1591C85.3504 96.5568 84.8996 96.8674 84.3466 97.0909C83.7973 97.3106 83.1629 97.4205 82.4432 97.4205ZM87.3551 90.4261V88.5227H95.2642V90.4261H92.4517V97.25H90.1449V90.4261H87.3551ZM99.044 94.0568L102.186 88.5227H104.572V97.25H102.266V91.6989L99.1349 97.25H96.7315V88.5227H99.044V94.0568ZM105.636 90.4261V88.5227H113.545V90.4261H110.733V97.25H108.426V90.4261H105.636ZM116.53 91.2045H119.138C120.293 91.2045 121.195 91.4811 121.842 92.0341C122.49 92.5833 122.814 93.3182 122.814 94.2386C122.814 94.8371 122.668 95.3636 122.376 95.8182C122.085 96.2689 121.664 96.6212 121.115 96.875C120.566 97.125 119.907 97.25 119.138 97.25H115.013V88.5227H117.325V95.3466H119.138C119.543 95.3466 119.876 95.2443 120.138 95.0398C120.399 94.8352 120.532 94.5739 120.536 94.2557C120.532 93.9186 120.399 93.6439 120.138 93.4318C119.876 93.2159 119.543 93.108 119.138 93.108H116.53V91.2045ZM47.3054 110.92V112.824H42.7486V110.92H47.3054ZM43.544 107.523V116.25H41.2315V107.523H43.544ZM48.8224 107.523V116.25H46.527V107.523H48.8224ZM53.1889 116.415C52.6321 116.415 52.1359 116.318 51.7003 116.125C51.2647 115.928 50.92 115.638 50.6662 115.256C50.4162 114.869 50.2912 114.388 50.2912 113.812C50.2912 113.328 50.3802 112.92 50.5582 112.591C50.7363 112.261 50.9787 111.996 51.2855 111.795C51.5923 111.595 51.9408 111.443 52.331 111.341C52.7249 111.239 53.1378 111.167 53.5696 111.125C54.0772 111.072 54.4863 111.023 54.7969 110.977C55.1075 110.928 55.3329 110.856 55.473 110.761C55.6132 110.667 55.6832 110.527 55.6832 110.341V110.307C55.6832 109.947 55.5696 109.669 55.3423 109.472C55.1188 109.275 54.8007 109.176 54.3878 109.176C53.9522 109.176 53.6056 109.273 53.348 109.466C53.0904 109.655 52.92 109.894 52.8366 110.182L50.598 110C50.7116 109.47 50.9351 109.011 51.2685 108.625C51.6018 108.235 52.0317 107.936 52.5582 107.727C53.0885 107.515 53.7022 107.409 54.3991 107.409C54.884 107.409 55.348 107.466 55.7912 107.58C56.2382 107.693 56.634 107.869 56.9787 108.108C57.3272 108.347 57.6018 108.653 57.8026 109.028C58.0033 109.4 58.1037 109.845 58.1037 110.364V116.25H55.8082V115.04H55.7401C55.5999 115.312 55.4124 115.553 55.1776 115.761C54.9427 115.966 54.6605 116.127 54.331 116.244C54.0014 116.358 53.6207 116.415 53.1889 116.415ZM53.8821 114.744C54.2382 114.744 54.5526 114.674 54.8253 114.534C55.098 114.39 55.312 114.197 55.4673 113.955C55.6226 113.712 55.7003 113.437 55.7003 113.131V112.205C55.6245 112.254 55.5204 112.299 55.3878 112.341C55.259 112.379 55.1132 112.415 54.9503 112.449C54.7874 112.479 54.6245 112.508 54.4616 112.534C54.2988 112.557 54.151 112.578 54.0185 112.597C53.7344 112.638 53.4863 112.705 53.2741 112.795C53.062 112.886 52.8973 113.009 52.7798 113.165C52.6624 113.316 52.6037 113.506 52.6037 113.733C52.6037 114.062 52.723 114.314 52.9616 114.489C53.2041 114.659 53.5109 114.744 53.8821 114.744ZM63.6847 116.25V107.523H67.4062C68.482 107.523 69.3324 107.727 69.9574 108.136C70.5824 108.545 70.8949 109.127 70.8949 109.881C70.8949 110.354 70.7188 110.748 70.3665 111.062C70.0142 111.377 69.5256 111.589 68.9006 111.699C69.4233 111.737 69.8684 111.856 70.2358 112.057C70.607 112.254 70.8892 112.509 71.0824 112.824C71.2794 113.138 71.3778 113.487 71.3778 113.869C71.3778 114.366 71.2453 114.792 70.9801 115.148C70.7188 115.504 70.3343 115.777 69.8267 115.966C69.3229 116.155 68.7074 116.25 67.9801 116.25H63.6847ZM65.9403 114.438H67.9801C68.3172 114.438 68.5805 114.358 68.7699 114.199C68.9631 114.036 69.0597 113.814 69.0597 113.534C69.0597 113.223 68.9631 112.979 68.7699 112.801C68.5805 112.623 68.3172 112.534 67.9801 112.534H65.9403V114.438ZM65.9403 111.114H67.4574C67.6998 111.114 67.9063 111.08 68.0767 111.011C68.2509 110.939 68.3835 110.837 68.4744 110.705C68.5691 110.572 68.6165 110.415 68.6165 110.233C68.6165 109.964 68.5085 109.754 68.2926 109.602C68.0767 109.451 67.7812 109.375 67.4062 109.375H65.9403V111.114ZM76.8466 116.42C75.964 116.42 75.2008 116.233 74.5568 115.858C73.9167 115.479 73.4223 114.953 73.0739 114.278C72.7254 113.6 72.5511 112.814 72.5511 111.92C72.5511 111.019 72.7254 110.231 73.0739 109.557C73.4223 108.879 73.9167 108.352 74.5568 107.977C75.2008 107.598 75.964 107.409 76.8466 107.409C77.7292 107.409 78.4905 107.598 79.1307 107.977C79.7746 108.352 80.2708 108.879 80.6193 109.557C80.9678 110.231 81.142 111.019 81.142 111.92C81.142 112.814 80.9678 113.6 80.6193 114.278C80.2708 114.953 79.7746 115.479 79.1307 115.858C78.4905 116.233 77.7292 116.42 76.8466 116.42ZM76.858 114.545C77.2595 114.545 77.5947 114.432 77.8636 114.205C78.1326 113.973 78.3352 113.659 78.4716 113.261C78.6117 112.864 78.6818 112.411 78.6818 111.903C78.6818 111.396 78.6117 110.943 78.4716 110.545C78.3352 110.148 78.1326 109.833 77.8636 109.602C77.5947 109.371 77.2595 109.256 76.858 109.256C76.4527 109.256 76.1117 109.371 75.8352 109.602C75.5625 109.833 75.3561 110.148 75.2159 110.545C75.0795 110.943 75.0114 111.396 75.0114 111.903C75.0114 112.411 75.0795 112.864 75.2159 113.261C75.3561 113.659 75.5625 113.973 75.8352 114.205C76.1117 114.432 76.4527 114.545 76.858 114.545ZM82.7159 116.25V107.523H90.3466V116.25H88.0341V109.426H85V116.25H82.7159ZM92.2784 119.523V107.523H94.6648V108.989H94.7727C94.8788 108.754 95.0322 108.515 95.233 108.273C95.4375 108.027 95.7027 107.822 96.0284 107.659C96.358 107.492 96.767 107.409 97.2557 107.409C97.892 107.409 98.4792 107.576 99.017 107.909C99.5549 108.239 99.9848 108.737 100.307 109.403C100.629 110.066 100.79 110.898 100.79 111.898C100.79 112.871 100.633 113.693 100.318 114.364C100.008 115.03 99.5833 115.536 99.0455 115.881C98.5114 116.222 97.9129 116.392 97.25 116.392C96.7803 116.392 96.3807 116.314 96.0511 116.159C95.7254 116.004 95.4583 115.809 95.25 115.574C95.0417 115.335 94.8826 115.095 94.7727 114.852H94.6989V119.523H92.2784ZM94.6477 111.886C94.6477 112.405 94.7197 112.858 94.8636 113.244C95.0076 113.631 95.2159 113.932 95.4886 114.148C95.7614 114.36 96.0928 114.466 96.483 114.466C96.8769 114.466 97.2102 114.358 97.483 114.142C97.7557 113.922 97.9621 113.619 98.1023 113.233C98.2462 112.843 98.3182 112.394 98.3182 111.886C98.3182 111.383 98.2481 110.939 98.108 110.557C97.9678 110.174 97.7614 109.875 97.4886 109.659C97.2159 109.443 96.8807 109.335 96.483 109.335C96.089 109.335 95.7557 109.439 95.483 109.648C95.214 109.856 95.0076 110.152 94.8636 110.534C94.7197 110.917 94.6477 111.367 94.6477 111.886ZM106.347 116.42C105.464 116.42 104.701 116.233 104.057 115.858C103.417 115.479 102.922 114.953 102.574 114.278C102.225 113.6 102.051 112.814 102.051 111.92C102.051 111.019 102.225 110.231 102.574 109.557C102.922 108.879 103.417 108.352 104.057 107.977C104.701 107.598 105.464 107.409 106.347 107.409C107.229 107.409 107.991 107.598 108.631 107.977C109.275 108.352 109.771 108.879 110.119 109.557C110.468 110.231 110.642 111.019 110.642 111.92C110.642 112.814 110.468 113.6 110.119 114.278C109.771 114.953 109.275 115.479 108.631 115.858C107.991 116.233 107.229 116.42 106.347 116.42ZM106.358 114.545C106.759 114.545 107.095 114.432 107.364 114.205C107.633 113.973 107.835 113.659 107.972 113.261C108.112 112.864 108.182 112.411 108.182 111.903C108.182 111.396 108.112 110.943 107.972 110.545C107.835 110.148 107.633 109.833 107.364 109.602C107.095 109.371 106.759 109.256 106.358 109.256C105.953 109.256 105.612 109.371 105.335 109.602C105.063 109.833 104.856 110.148 104.716 110.545C104.58 110.943 104.511 111.396 104.511 111.903C104.511 112.411 104.58 112.864 104.716 113.261C104.856 113.659 105.063 113.973 105.335 114.205C105.612 114.432 105.953 114.545 106.358 114.545ZM116.159 116.42C115.265 116.42 114.496 116.231 113.852 115.852C113.212 115.47 112.72 114.939 112.375 114.261C112.034 113.583 111.864 112.803 111.864 111.92C111.864 111.027 112.036 110.242 112.381 109.568C112.729 108.89 113.223 108.362 113.864 107.983C114.504 107.6 115.265 107.409 116.148 107.409C116.909 107.409 117.576 107.547 118.148 107.824C118.72 108.1 119.172 108.489 119.506 108.989C119.839 109.489 120.023 110.076 120.057 110.75H117.773C117.708 110.314 117.538 109.964 117.261 109.699C116.989 109.43 116.631 109.295 116.188 109.295C115.812 109.295 115.485 109.398 115.205 109.602C114.928 109.803 114.712 110.097 114.557 110.483C114.402 110.869 114.324 111.337 114.324 111.886C114.324 112.443 114.4 112.917 114.551 113.307C114.706 113.697 114.924 113.994 115.205 114.199C115.485 114.403 115.812 114.506 116.188 114.506C116.464 114.506 116.712 114.449 116.932 114.335C117.155 114.222 117.339 114.057 117.483 113.841C117.631 113.621 117.727 113.358 117.773 113.051H120.057C120.019 113.718 119.837 114.305 119.511 114.812C119.189 115.316 118.744 115.71 118.176 115.994C117.608 116.278 116.936 116.42 116.159 116.42ZM123.124 110.205H125.732C126.887 110.205 127.788 110.481 128.436 111.034C129.084 111.583 129.408 112.318 129.408 113.239C129.408 113.837 129.262 114.364 128.97 114.818C128.679 115.269 128.258 115.621 127.709 115.875C127.16 116.125 126.5 116.25 125.732 116.25H121.607V107.523H123.919V114.347H125.732C126.137 114.347 126.47 114.244 126.732 114.04C126.993 113.835 127.125 113.574 127.129 113.256C127.125 112.919 126.993 112.644 126.732 112.432C126.47 112.216 126.137 112.108 125.732 112.108H123.124V110.205ZM130.345 116.25V107.523H132.766V116.25H130.345Z" fill="white"/>
</svg>
