<svg width="119" height="42" viewBox="0 0 119 42" fill="none" xmlns="http://www.w3.org/2000/svg">
<rect width="119" height="42" rx="5" fill="white"/>
<path d="M36.178 15.58V23.05C36.178 24.31 36.022 25.324 35.71 26.092C35.398 26.848 34.882 27.4 34.162 27.748C33.454 28.084 32.506 28.252 31.318 28.252C30.058 28.252 29.05 28.084 28.294 27.748C27.538 27.4 26.992 26.848 26.656 26.092C26.32 25.324 26.152 24.31 26.152 23.05V15.58H28.906V23.05C28.906 23.83 28.972 24.442 29.104 24.886C29.248 25.318 29.488 25.624 29.824 25.804C30.16 25.984 30.61 26.074 31.174 26.074C31.738 26.074 32.182 25.984 32.506 25.804C32.842 25.624 33.076 25.318 33.208 24.886C33.352 24.442 33.424 23.83 33.424 23.05V15.58H36.178ZM43.3698 15.4C44.4618 15.4 45.3438 15.514 46.0158 15.742C46.6998 15.958 47.1978 16.336 47.5098 16.876C47.8338 17.404 47.9958 18.142 47.9958 19.09C47.9958 19.666 47.9178 20.176 47.7618 20.62C47.6178 21.052 47.3718 21.4 47.0238 21.664C46.6758 21.928 46.2018 22.096 45.6018 22.168V22.258C45.8178 22.294 46.0398 22.378 46.2678 22.51C46.5078 22.642 46.7298 22.84 46.9338 23.104C47.1378 23.356 47.2878 23.698 47.3838 24.13L48.4638 28H45.5658L44.6118 24.22C44.5038 23.812 44.3418 23.53 44.1258 23.374C43.9218 23.218 43.6338 23.14 43.2618 23.14C42.4458 23.14 41.7558 23.14 41.1918 23.14C40.6398 23.128 40.1718 23.116 39.7878 23.104C39.4158 23.092 39.0798 23.08 38.7798 23.068L38.8338 21.07H43.3158C43.7958 21.07 44.1738 21.022 44.4498 20.926C44.7378 20.818 44.9358 20.632 45.0438 20.368C45.1638 20.104 45.2238 19.738 45.2238 19.27C45.2238 18.79 45.1638 18.424 45.0438 18.172C44.9358 17.908 44.7378 17.728 44.4498 17.632C44.1738 17.524 43.7958 17.47 43.3158 17.47C42.1878 17.47 41.2338 17.476 40.4538 17.488C39.6738 17.5 39.1398 17.518 38.8518 17.542L38.5818 15.58C39.0858 15.52 39.5598 15.478 40.0038 15.454C40.4478 15.43 40.9338 15.418 41.4618 15.418C41.9898 15.406 42.6258 15.4 43.3698 15.4ZM41.2998 15.58V28H38.5818V15.58H41.2998ZM60.7481 15.58V27.01C60.7481 27.67 60.4181 28 59.7581 28H58.2461C57.9461 28 57.7181 27.934 57.5621 27.802C57.4061 27.658 57.2621 27.448 57.1301 27.172L53.6921 20.656C53.5481 20.38 53.4041 20.074 53.2601 19.738C53.1281 19.402 53.0141 19.078 52.9181 18.766H52.7201C52.7561 19.09 52.7861 19.42 52.8101 19.756C52.8341 20.08 52.8461 20.404 52.8461 20.728V28H50.2361V16.57C50.2361 15.91 50.5721 15.58 51.2441 15.58H52.7381C53.0261 15.58 53.2421 15.652 53.3861 15.796C53.5421 15.928 53.6921 16.132 53.8361 16.408L57.1661 22.726C57.3101 23.002 57.4601 23.308 57.6161 23.644C57.7721 23.98 57.9221 24.328 58.0661 24.688H58.2821C58.2461 24.328 58.2161 23.98 58.1921 23.644C58.1801 23.296 58.1741 22.954 58.1741 22.618L58.1561 15.58H60.7481ZM65.7824 15.526C66.4544 15.526 67.1324 15.532 67.8164 15.544C68.5004 15.544 69.1724 15.556 69.8324 15.58C70.4924 15.604 71.1104 15.646 71.6864 15.706L71.5604 17.704H66.7904C66.4904 17.704 66.2624 17.782 66.1064 17.938C65.9624 18.094 65.8904 18.322 65.8904 18.622V24.958C65.8904 25.258 65.9624 25.486 66.1064 25.642C66.2624 25.798 66.4904 25.876 66.7904 25.876H71.5604L71.6864 27.874C71.1104 27.922 70.4924 27.964 69.8324 28C69.1724 28.024 68.5004 28.036 67.8164 28.036C67.1324 28.048 66.4544 28.054 65.7824 28.054C64.9904 28.054 64.3484 27.826 63.8564 27.37C63.3764 26.902 63.1364 26.296 63.1364 25.552V18.028C63.1364 17.272 63.3764 16.666 63.8564 16.21C64.3484 15.754 64.9904 15.526 65.7824 15.526ZM63.4604 20.566H70.8944V22.51H63.4604V20.566ZM76.2786 15.526C76.9146 15.526 77.5626 15.532 78.2226 15.544C78.8946 15.544 79.5486 15.562 80.1846 15.598C80.8326 15.622 81.4326 15.664 81.9846 15.724L81.8406 17.704H77.3406C77.0166 17.704 76.7706 17.782 76.6026 17.938C76.4346 18.094 76.3506 18.322 76.3506 18.622V28H73.5966V18.064C73.5966 17.296 73.8426 16.684 74.3346 16.228C74.8266 15.76 75.4746 15.526 76.2786 15.526ZM73.9206 20.782H81.1746V22.726H73.9206V20.782ZM88.4222 15.4C89.5862 15.4 90.4982 15.52 91.1582 15.76C91.8182 16 92.2862 16.414 92.5622 17.002C92.8502 17.59 92.9942 18.412 92.9942 19.468C92.9942 20.524 92.8562 21.346 92.5802 21.934C92.3162 22.522 91.8782 22.936 91.2662 23.176C90.6542 23.404 89.8262 23.518 88.7822 23.518C88.2302 23.518 87.6902 23.494 87.1622 23.446C86.6342 23.398 86.1422 23.338 85.6862 23.266C85.2302 23.194 84.8402 23.122 84.5162 23.05C84.1922 22.966 83.9702 22.888 83.8502 22.816L83.9042 21.448C84.6122 21.448 85.3442 21.448 86.1002 21.448C86.8682 21.448 87.6242 21.448 88.3682 21.448C88.8482 21.436 89.2202 21.376 89.4842 21.268C89.7602 21.16 89.9522 20.962 90.0602 20.674C90.1802 20.386 90.2402 19.984 90.2402 19.468C90.2402 18.94 90.1802 18.532 90.0602 18.244C89.9522 17.956 89.7602 17.758 89.4842 17.65C89.2202 17.53 88.8482 17.47 88.3682 17.47C87.2642 17.47 86.3162 17.476 85.5242 17.488C84.7322 17.5 84.1982 17.524 83.9222 17.56L83.6522 15.58C84.1562 15.52 84.6302 15.478 85.0742 15.454C85.5182 15.43 85.9982 15.418 86.5142 15.418C87.0422 15.406 87.6782 15.4 88.4222 15.4ZM86.4062 15.58V28H83.6522V15.58H86.4062Z" fill="black"/>
</svg>
