<svg width="127" height="25" viewBox="0 0 127 25" fill="none" xmlns="http://www.w3.org/2000/svg">
<path d="M19.114 0.914998V15.025C19.114 17.405 18.8193 19.3203 18.23 20.771C17.6407 22.199 16.666 23.2417 15.306 23.899C13.9687 24.5337 12.178 24.851 9.934 24.851C7.554 24.851 5.65 24.5337 4.222 23.899C2.794 23.2417 1.76267 22.199 1.128 20.771C0.493333 19.3203 0.176 17.405 0.176 15.025V0.914998H5.378V15.025C5.378 16.4983 5.50267 17.6543 5.752 18.493C6.024 19.309 6.47733 19.887 7.112 20.227C7.74667 20.567 8.59667 20.737 9.662 20.737C10.7273 20.737 11.566 20.567 12.178 20.227C12.8127 19.887 13.2547 19.309 13.504 18.493C13.776 17.6543 13.912 16.4983 13.912 15.025V0.914998H19.114ZM32.6986 0.574998C34.7613 0.574998 36.4273 0.790332 37.6966 1.221C38.9886 1.629 39.9293 2.343 40.5186 3.363C41.1306 4.36033 41.4366 5.75433 41.4366 7.545C41.4366 8.633 41.2893 9.59633 40.9946 10.435C40.7226 11.251 40.2579 11.9083 39.6006 12.407C38.9433 12.9057 38.0479 13.223 36.9146 13.359V13.529C37.3226 13.597 37.7419 13.7557 38.1726 14.005C38.6259 14.2543 39.0453 14.6283 39.4306 15.127C39.8159 15.603 40.0993 16.249 40.2806 17.065L42.3206 24.375H36.8466L35.0446 17.235C34.8406 16.4643 34.5346 15.9317 34.1266 15.637C33.7413 15.3423 33.1973 15.195 32.4946 15.195C30.9533 15.195 29.6499 15.195 28.5846 15.195C27.5419 15.1723 26.6579 15.1497 25.9326 15.127C25.2299 15.1043 24.5953 15.0817 24.0286 15.059L24.1306 11.285H32.5966C33.5033 11.285 34.2173 11.1943 34.7386 11.013C35.2826 10.809 35.6566 10.4577 35.8606 9.959C36.0873 9.46033 36.2006 8.769 36.2006 7.885C36.2006 6.97833 36.0873 6.287 35.8606 5.811C35.6566 5.31233 35.2826 4.97233 34.7386 4.791C34.2173 4.587 33.5033 4.485 32.5966 4.485C30.4659 4.485 28.6639 4.49633 27.1906 4.519C25.7173 4.54167 24.7086 4.57567 24.1646 4.621L23.6546 0.914998C24.6066 0.801665 25.5019 0.722332 26.3406 0.676999C27.1793 0.631665 28.0973 0.608998 29.0946 0.608998C30.0919 0.586332 31.2933 0.574998 32.6986 0.574998ZM28.7886 0.914998V24.375H23.6546V0.914998H28.7886ZM65.5243 0.914998V22.505C65.5243 23.7517 64.9009 24.375 63.6543 24.375H60.7983C60.2316 24.375 59.8009 24.2503 59.5063 24.001C59.2116 23.729 58.9396 23.3323 58.6903 22.811L52.1963 10.503C51.9243 9.98167 51.6523 9.40367 51.3803 8.769C51.1309 8.13433 50.9156 7.52233 50.7343 6.933H50.3603C50.4283 7.545 50.4849 8.16833 50.5303 8.803C50.5756 9.415 50.5983 10.027 50.5983 10.639V24.375H45.6683V2.785C45.6683 1.53833 46.3029 0.914998 47.5723 0.914998H50.3943C50.9383 0.914998 51.3463 1.051 51.6183 1.323C51.9129 1.57233 52.1963 1.95766 52.4683 2.479L58.7583 14.413C59.0303 14.9343 59.3136 15.5123 59.6083 16.147C59.9029 16.7817 60.1863 17.439 60.4583 18.119H60.8663C60.7983 17.439 60.7416 16.7817 60.6963 16.147C60.6736 15.4897 60.6623 14.8437 60.6623 14.209L60.6283 0.914998H65.5243ZM75.0334 0.812999C76.3027 0.812999 77.5834 0.824333 78.8754 0.846999C80.1674 0.846999 81.4367 0.869665 82.6834 0.914998C83.93 0.960332 85.0974 1.03967 86.1854 1.153L85.9474 4.927H76.9374C76.3707 4.927 75.94 5.07433 75.6454 5.369C75.3734 5.66367 75.2374 6.09433 75.2374 6.661V18.629C75.2374 19.1957 75.3734 19.6263 75.6454 19.921C75.94 20.2157 76.3707 20.363 76.9374 20.363H85.9474L86.1854 24.137C85.0974 24.2277 83.93 24.307 82.6834 24.375C81.4367 24.4203 80.1674 24.443 78.8754 24.443C77.5834 24.4657 76.3027 24.477 75.0334 24.477C73.5374 24.477 72.3247 24.0463 71.3954 23.185C70.4887 22.301 70.0354 21.1563 70.0354 19.751V5.539C70.0354 4.111 70.4887 2.96633 71.3954 2.105C72.3247 1.24367 73.5374 0.812999 75.0334 0.812999ZM70.6474 10.333H84.6894V14.005H70.6474V10.333ZM94.8596 0.812999C96.061 0.812999 97.285 0.824333 98.5316 0.846999C99.801 0.846999 101.036 0.880999 102.238 0.949C103.462 0.994332 104.595 1.07367 105.638 1.187L105.366 4.927H96.8656C96.2536 4.927 95.789 5.07433 95.4716 5.369C95.1543 5.66367 94.9956 6.09433 94.9956 6.661V24.375H89.7936V5.607C89.7936 4.15633 90.2583 3.00033 91.1876 2.139C92.117 1.255 93.341 0.812999 94.8596 0.812999ZM90.4056 10.741H104.108V14.413H90.4056V10.741ZM117.797 0.574998C119.996 0.574998 121.719 0.801666 122.965 1.255C124.212 1.70833 125.096 2.49033 125.617 3.601C126.161 4.71167 126.433 6.26433 126.433 8.259C126.433 10.2537 126.173 11.8063 125.651 12.917C125.153 14.0277 124.325 14.8097 123.169 15.263C122.013 15.6937 120.449 15.909 118.477 15.909C117.435 15.909 116.415 15.8637 115.417 15.773C114.42 15.6823 113.491 15.569 112.629 15.433C111.768 15.297 111.031 15.161 110.419 15.025C109.807 14.8663 109.388 14.719 109.161 14.583L109.263 11.999C110.601 11.999 111.983 11.999 113.411 11.999C114.862 11.999 116.29 11.999 117.695 11.999C118.602 11.9763 119.305 11.863 119.803 11.659C120.325 11.455 120.687 11.081 120.891 10.537C121.118 9.993 121.231 9.23367 121.231 8.259C121.231 7.26167 121.118 6.491 120.891 5.947C120.687 5.403 120.325 5.029 119.803 4.825C119.305 4.59833 118.602 4.485 117.695 4.485C115.61 4.485 113.819 4.49633 112.323 4.519C110.827 4.54167 109.819 4.587 109.297 4.655L108.787 0.914998C109.739 0.801665 110.635 0.722332 111.473 0.676999C112.312 0.631665 113.219 0.608998 114.193 0.608998C115.191 0.586332 116.392 0.574998 117.797 0.574998ZM113.989 0.914998V24.375H108.787V0.914998H113.989Z" fill="black"/>
</svg>
